<svg xmlns="http://www.w3.org/2000/svg" xmlns:xlink="http://www.w3.org/1999/xlink" width="16" height="17" viewBox="0 0 16 17">
  <defs>
    <clipPath id="clip-Filtros">
      <rect width="16" height="17"/>
    </clipPath>
  </defs>
  <g id="Filtros" clip-path="url(#clip-Filtros)">
    <g id="Grupo_12281" data-name="Grupo 12281" transform="translate(-4 -4)">
      <path id="Trazado_4833" data-name="Trazado 4833" d="M0,0H24V24H0Z" fill="none"/>
      <path id="Trazado_4836" data-name="Trazado 4836" d="M5.336,14.8a2.4,2.4,0,0,1,4.528,0H18v1.6H9.864a2.4,2.4,0,0,1-4.528,0H2V14.8Zm4.8-5.6a2.4,2.4,0,0,1,4.528,0H18v1.6H14.664a2.4,2.4,0,0,1-4.528,0H2V9.2Zm-4.8-5.6a2.4,2.4,0,0,1,4.528,0H18V5.2H9.864a2.4,2.4,0,0,1-4.528,0H2V3.6ZM7.6,5.2a.8.8,0,1,0-.8-.8A.8.8,0,0,0,7.6,5.2Zm4.8,5.6a.8.8,0,1,0-.8-.8A.8.8,0,0,0,12.4,10.8ZM7.6,16.4a.8.8,0,1,0-.8-.8A.8.8,0,0,0,7.6,16.4Z" transform="translate(2 2.117)" fill="#2b2a2a"/>
    </g>
  </g>
</svg>
