<svg xmlns="http://www.w3.org/2000/svg" xmlns:xlink="http://www.w3.org/1999/xlink" width="24" height="24" viewBox="0 0 24 24">
  <defs>
    <clipPath id="clip-Identificacion">
      <rect width="24" height="24"/>
    </clipPath>
  </defs>
  <g id="Identificacion" clip-path="url(#clip-Identificacion)">
    <g id="Grupo_12445" data-name="Grupo 12445">
      <path id="Trazado_4854" data-name="Trazado 4854" d="M0,0H24V24H0Z" fill="none"/>
      <path id="Trazado_4855" data-name="Trazado 4855" d="M2,3.993A1,1,0,0,1,2.992,3H21.008A.993.993,0,0,1,22,3.993V20.007a1,1,0,0,1-.992.993H2.992A.993.993,0,0,1,2,20.007ZM4,5V19H20V5ZM6,7h6v6H6ZM8,9v2h2V9ZM6,15H18v2H6Zm8-8h4V9H14Zm0,4h4v2H14Z" fill="#2b2a2a"/>
    </g>
  </g>
</svg>
